# xmcd
#
# Track frame offsets:
#	150
#	20806
#	48251
#	82224
#	107537
#	128495
#	171837
#	222016
#	241465
#
# Disc length: 3616 seconds
#
# Revision: 3
# Processed by: cddbd v1.5.2PL0 Copyright (c) Steve Scherf et al.
# Submitted via: EasyCDDAExtractor 16.0.6.1
#
DISCID=740e1e09
DTITLE=Sunete CD02 - Sighisoara Blues Festival 2006
DYEAR=2007
DGENRE=Blues
TTITLE0=Baicea's Blues Band - Soul to soul
TTITLE1=Blue Family - Rock this house
TTITLE2=Blues Company - I'm a king bee - Slim Harpo
TTITLE3=Crossroads - Need your love so bad
TTITLE4=T.O.N.E. - Little red rooster
TTITLE5=Raw hide - Early in the morning
TTITLE6=Blues Opened Version - Morning has broken
TTITLE7=Chris Tofield Band - Insomnia
TTITLE8=Chris Tofield Band - One more to show
EXTD=
EXTT0=Stevie Ray Vaughan
EXTT1=Hollywood Fats
EXTT2=
EXTT3=Little Willie John
EXTT4=Willie Dixon
EXTT5=Otis Spann
EXTT6=
EXTT7=Chris Tofield
EXTT8=Chris Tofield
PLAYORDER=
